<svg width="64" height="64" viewBox="0 0 64 64" fill="none" xmlns="http://www.w3.org/2000/svg">
  <defs>
    <linearGradient id="bgGradient" x1="12" y1="8" x2="54" y2="58" gradientUnits="userSpaceOnUse">
      <stop stop-color="#FBF6EF"/>
      <stop offset="1" stop-color="#F2E7D8"/>
    </linearGradient>
    <linearGradient id="displayGradient" x1="21" y1="18" x2="43" y2="27" gradientUnits="userSpaceOnUse">
      <stop stop-color="#E8A838"/>
      <stop offset="1" stop-color="#CB5647"/>
    </linearGradient>
    <radialGradient id="glowTop" cx="0" cy="0" r="1" gradientUnits="userSpaceOnUse" gradientTransform="translate(49 15) rotate(132.843) scale(24.3312 24.992)">
      <stop stop-color="#E8A838" stop-opacity="0.34"/>
      <stop offset="1" stop-color="#E8A838" stop-opacity="0"/>
    </radialGradient>
    <radialGradient id="glowBottom" cx="0" cy="0" r="1" gradientUnits="userSpaceOnUse" gradientTransform="translate(15 52) rotate(-35.5734) scale(23.4669 22.8321)">
      <stop stop-color="#5C8D67" stop-opacity="0.16"/>
      <stop offset="1" stop-color="#5C8D67" stop-opacity="0"/>
    </radialGradient>
  </defs>

  <rect width="64" height="64" rx="18" fill="url(#bgGradient)"/>
  <rect width="64" height="64" rx="18" fill="url(#glowTop)"/>
  <rect width="64" height="64" rx="18" fill="url(#glowBottom)"/>

  <g filter="url(#shadow)">
    <rect x="16" y="11" width="32" height="42" rx="10" fill="#FFFCF7"/>
    <rect x="16" y="11" width="32" height="42" rx="10" stroke="#292723" stroke-width="3"/>
    <rect x="21" y="18" width="22" height="9" rx="4.5" fill="url(#displayGradient)"/>
    <path d="M24 23H40" stroke="#FFF8EE" stroke-width="2.2" stroke-linecap="round"/>

    <rect x="22" y="32" width="6" height="6" rx="2" fill="#292723"/>
    <rect x="30" y="32" width="6" height="6" rx="2" fill="#292723"/>
    <rect x="38" y="32" width="4" height="14" rx="2" fill="#CB5647"/>

    <rect x="22" y="40" width="6" height="6" rx="2" fill="#292723"/>
    <rect x="30" y="40" width="6" height="6" rx="2" fill="#292723"/>

    <path d="M40 49V40" stroke="#FFF8EE" stroke-width="2" stroke-linecap="round"/>
    <path d="M35.5 44.5H44.5" stroke="#FFF8EE" stroke-width="2" stroke-linecap="round"/>
  </g>

  <defs>
    <filter id="shadow" x="12" y="8" width="40" height="49" filterUnits="userSpaceOnUse" color-interpolation-filters="sRGB">
      <feFlood flood-opacity="0" result="BackgroundImageFix"/>
      <feColorMatrix in="SourceAlpha" type="matrix" values="0 0 0 0 0 0 0 0 0 0 0 0 0 0 0 0 0 0 127 0" result="hardAlpha"/>
      <feOffset dy="1"/>
      <feGaussianBlur stdDeviation="1.5"/>
      <feComposite in2="hardAlpha" operator="out"/>
      <feColorMatrix type="matrix" values="0 0 0 0 0.160784 0 0 0 0 0.152941 0 0 0 0 0.137255 0 0 0 0.12 0"/>
      <feBlend mode="normal" in2="BackgroundImageFix" result="effect1_dropShadow_1_1"/>
      <feBlend mode="normal" in="SourceGraphic" in2="effect1_dropShadow_1_1" result="shape"/>
    </filter>
  </defs>
</svg>
